<svg width="87" height="87" viewBox="0 0 87 87" fill="none" xmlns="http://www.w3.org/2000/svg">
<path d="M67.8281 38.0625V39.5625H69.3281H73.4062C77.0807 39.5625 80.0625 42.5442 80.0625 46.2188V78.8438C80.0625 82.5182 77.0807 85.5 73.4062 85.5H13.5938C9.91925 85.5 6.9375 82.5182 6.9375 78.8438V46.2188C6.9375 42.5442 9.91925 39.5625 13.5938 39.5625H17.6719H19.1719V38.0625V25.8281C19.1719 12.4171 30.089 1.5 43.5 1.5C56.911 1.5 67.8281 12.4171 67.8281 25.8281V38.0625ZM55.7344 39.5625H57.2344V38.0625V25.8281C57.2344 18.2538 51.0743 12.0938 43.5 12.0938C35.9257 12.0938 29.7656 18.2538 29.7656 25.8281V38.0625V39.5625H31.2656H55.7344Z" stroke="white" stroke-width="3"/>
<circle cx="43.5" cy="60.9" r="5.22" fill="white"/>
</svg>
