<svg width="24" height="24" viewBox="0 0 24 24" fill="none" xmlns="http://www.w3.org/2000/svg">
<path d="M17.3125 15.25H16.2263L15.8413 14.8788C17.4913 12.9538 18.3438 10.3275 17.8763 7.53626C17.23 3.71376 14.04 0.661256 10.19 0.193756C4.37376 -0.521244 -0.521244 4.37376 0.193756 10.19C0.661256 14.04 3.71376 17.23 7.53626 17.8763C10.3275 18.3438 12.9538 17.4913 14.8788 15.8413L15.25 16.2263V17.3125L21.0938 23.1563C21.6575 23.72 22.5788 23.72 23.1425 23.1563C23.7063 22.5925 23.7063 21.6713 23.1425 21.1075L17.3125 15.25ZM9.06251 15.25C5.63876 15.25 2.87501 12.4863 2.87501 9.06251C2.87501 5.63876 5.63876 2.87501 9.06251 2.87501C12.4863 2.87501 15.25 5.63876 15.25 9.06251C15.25 12.4863 12.4863 15.25 9.06251 15.25Z" fill="#6D7280"/>
</svg>
